/* XPM */
static char *c87c8fdaef4d4016d1a2652ed343a71akq5jra4xVETRKaNK[] = {
/* columns rows colors chars-per-pixel */
"64 64 175 2 ",
"   c #010101",
".  c #090703",
"X  c #060B06",
"o  c #0D0A05",
"O  c #060709",
"+  c #06090A",
"@  c #090B0C",
"#  c #0C120A",
"$  c #0E1A0F",
"%  c #1E1606",
"&  c #10150D",
"*  c #0A0E11",
"=  c #0D1114",
"-  c #0E1418",
";  c #101312",
":  c #141B15",
">  c #1E1910",
",  c #101518",
"   c #141A1D",
"1  c #191F19",
"2  c #211706",
"3  c #231907",
"4  c #261B09",
"5  c #2B1E09",
"6  c #132414",
"7  c #1A2219",
"8  c #1A231B",
"9  c #1B2C1C",
"0  c #1C331D",
"q  c #24210D",
"w  c #2D2009",
"e  c #202D1A",
"r  c #392C12",
"t  c #3B3213",
"y  c #171E23",
"u  c #181F23",
"i  c #1A2224",
"p  c #1C2922",
"a  c #1C2529",
"s  c #1F292E",
"d  c #252727",
"f  c #222A22",
"g  c #272728",
"h  c #2C2D2E",
"j  c #263A26",
"k  c #2D3B2D",
"l  c #222D33",
"z  c #253036",
"x  c #2C3930",
"c  c #263339",
"v  c #29363C",
"b  c #2B383E",
"n  c #333435",
"m  c #46320F",
"M  c #4A3510",
"N  c #533B11",
"B  c #553F16",
"V  c #463D23",
"C  c #244226",
"Z  c #2B4C2A",
"A  c #304121",
"S  c #2C512E",
"D  c #344335",
"F  c #394B3A",
"G  c #315B34",
"H  c #38583B",
"J  c #346136",
"K  c #39643A",
"L  c #3B6E3E",
"P  c #3B703E",
"I  c #574015",
"U  c #5F4415",
"Y  c #614515",
"T  c #674A16",
"R  c #6C4D17",
"E  c #6E4F18",
"W  c #6F5019",
"Q  c #71521A",
"!  c #74541B",
"~  c #4B4023",
"^  c #564C2C",
"/  c #725722",
"(  c #645833",
")  c #695C36",
"_  c #7F6732",
"`  c #2E3C43",
"'  c #303F46",
"]  c #314047",
"[  c #36464E",
"{  c #374850",
"}  c #384951",
"|  c #3F515A",
" . c #3F6F41",
".. c #3F7542",
"X. c #485349",
"o. c #42565F",
"O. c #5B5B5B",
"+. c #4B654C",
"@. c #407642",
"#. c #437C46",
"$. c #4B6254",
"%. c #556E56",
"&. c #4F7750",
"*. c #5A775C",
"=. c #435761",
"-. c #465B65",
";. c #495F6A",
":. c #4C636E",
">. c #4E6571",
",. c #516A75",
" . c #546E7A",
"1. c #676767",
"2. c #687168",
"3. c #777777",
"4. c #757975",
"5. c #8C6E2F",
"6. c #917231",
"7. c #9B7C39",
"8. c #448048",
"9. c #4A844D",
"0. c #4E9051",
"q. c #549856",
"w. c #559C59",
"e. c #5AA45D",
"r. c #68876A",
"t. c #6F9070",
"y. c #6C9370",
"u. c #5EAC62",
"i. c #5FB063",
"p. c #61B164",
"a. c #66BC6A",
"s. c #69BD6D",
"d. c #7DA27E",
"f. c #7ABD7D",
"g. c #69C16D",
"h. c #6EC172",
"j. c #78C47C",
"k. c #98844C",
"l. c #A78F50",
"z. c #B09853",
"x. c #BAA35D",
"c. c #BEA962",
"v. c #C0A154",
"b. c #C1A262",
"n. c #C0A862",
"m. c #D9B966",
"M. c #E3BC6D",
"N. c #E2C36D",
"B. c #EFD17A",
"V. c #F4D57B",
"C. c #FADB7E",
"Z. c #7EB480",
"A. c #7EC681",
"S. c #87AF89",
"D. c #8FBB90",
"F. c #90BB92",
"G. c #84CA87",
"H. c #85C988",
"J. c #93C296",
"K. c #97C699",
"L. c #99C69B",
"P. c #9BC99D",
"I. c #8ED090",
"U. c #98D19B",
"Y. c #9FCEA1",
"T. c #9DD5A0",
"R. c #A0CEA2",
"E. c #A4D5A6",
"W. c #A6D6A8",
"Q. c #A8D4AA",
"!. c #A7D9A9",
"~. c #A9DAAB",
"^. c #FDDE82",
"/. c #FFE283",
"(. c #E3F2E4",
/* pixels */
" . . . . . . . . . . . . . . . . . . . . . . . . . . . . . . . . . . . . . . . . . . . . . . . . . . . . . . . . . . . . . . . .",
" . . . . . . . . . . . . . . . . . . . . . . . . . . . . . . . . . . . . . . . . . . . . . . . . . . . . . . . . . . . . . . . .",
" . . . . . . . . . . . . . . . . . . . . . . . . . . . . . . . . . . . . . . . . . . . . . . . . . . . . . . . . . . . . . . . .",
" . . . . . . . . . . . . . . . . . . . . . . . . . . . . . . . . . . . . . . . . . . . . . . . . . . . . . . . . . . . . . . . .",
" . . . . . . . . . . . . . . . . . . . . . . . . . . . . . . . . . . . . . . . . . . . . . . . . . . . . . . . . . . . . . . . .",
" . . . . . . . . . . . . . . . . . . . . . . . . . . . . . . . . . . . . . . . . . . . . .,. . . . .,. . . . . . . . .,. . . . .",
" . . . . . . . . . . . . . . . . . . . .,. . . . . . . . . . . . . .,. . . . . . . . . . . . . . . . . . . . . . . . . . . . . .",
" . . . . . . . . . . . . . . . . . . . . . . .,. . . . . . .,. .,. . . . . . . . .,. . . . . . . . . . . . . . . . . . . . . . .",
" . . . . . . . . . . . . . .,. . . .,. . . . . . . . . . . . . . . . . . . . . . . . . . . . . . . . . . . . . . . . . . . . . .",
" . . . . . . . . . . . . . . . . . . . . . . . . . .,. . .,. . . . . . . . . . . . . . . . . . . . . . . . . . . . . . . . . . .",
" . . . . . . . . . .,. . . . . . . . . . . . . . . . . . . . . .,. . . .,. .,. . . . . . . . . . . . .,. . . .,. . . . . . . . .",
" . . . . . . . . . . . . .,. . . . . . . . . . . . . . . . . . . . . . . . . . . . . . .,. . . . . . . . . . . . . . . . . . . .",
" . . . . . . . . . . . . . . . . . . . . . . . . . . . . . . . . . . . . . . . . . . . . . . . . . . . . . . . . . . . . . . . .",
" . . . . . . . . . . . . . . . . . . . . . . . . . . . . . . . . . . . . . . . . . . . . . . . . . . . . . . . . . . . . . . . .",
" . . . . . . . . . . . . . . . . . . . . . . . . . . . . . . . . . . . . . . . . . . . . . . . . . . . . . . . . . . . . . . . .",
" . . .,.=.o.o.o.o.=.o.o.o.=.=.| o.o.o.o.o.o.o.o.o.o.o.o.o.o.o.o.o.o.o.o.o.o.o.o.o.o.o.o.o.o.o.o.o.o.o.o.o.o.o.o.o.;. . . . . . .",
" . . .>.{ [ [ { } { { { { { { { { [ { { [ [ [ [ { [ { [ { [ { { [ { [ { [ [ [ [ [ [ } [ [ [ [ [ { { { ] } { { { [ o. . . . . . .",
" . . .>.} { [ [ ] ] ] { [ ] [ ] [ ] ] [ [ ] [ [ ] [ ] [ ] [ ] [ [ ] [ [ [ ] [ [ ] [ [ ] [ ] [ [ ] { { ] } ] ] { [ o. . . . . . .",
" . . .>.} [ ` z c c c c c c c c c c c c c c c c v c c v v c c v z c c c v c c c v c c c c c c c c c c c c c c [ [ =. . . . . . .",
" . . .>.} [ ` a @ @ @ @ + + + @ + + @ + u c c c c c c c c c c c c c c c c c c c l @ @ @ + + + + @ * * @ @ , c } [ =. . . . . . .",
" . . .>.} { ` i @ +.%.%.%.%.%.%.+.J J J j u l   , ; , , ; , - = , , , , , , l s 8 G J G K %.%.%.%.%.%.%.x @ c ' [ =. . . . . . .",
" . . .>.{ { ` y 1 K.~.~.~.~.!.!.I.j.s.g.@.9 a 0 x x x x k k k k k k k k k 0 9 i Z u.g.j.G.W.!.~.~.~.~.~.$.O c } X.=. . . . . . .",
" . . .>.} { b i 1 S.J.J.L.E.E.E.!.U.s.a.i.#.7 0.f.L.Q.R.E.E.Y.E.P.E.P.F.F.S.G C e.a.a.G.E.W.W.W.Y.J.J.J.+.@ c ] [ =. . . . . . .",
" . . .>.} { ` l l 1 1 1 F U.E.E.!.U.s.a.K C 0.9 $ 4.(.~.E.E.W.E.W.W.r.1 h Q.K.P 0 e.a.G.W.E.W.W.y.u   7 p l c { [ =. . . . . . .",
" . . .,.{ { ` c z u u * * D F d.~.T.h.g.G 0 e.$   d 2.P.E.!.E.E.W.!.*.    X.r.#.$ u.s.H.D.F D F c y y y d c v [ [ =. . . . . . .",
" . . .>.{ { ' b b c c d ; = = O.t.*. . .0 0 e.$     8 L.!.E.E.!.!.!.*.      P #.# J L &.+., , * y c c z ` ` ` [ [ =. . . . . . .",
" . . .>.o.} { { ] ` v v c c c c i + + +   0 u.j f e F P.W.E.E.W.W.!.r.9 e f 9.#.  + + + , c c c c v ` c ` [ { [ [ =. . . . . . .",
" . . . . .,.o.{ { [ [ ` c c c c c z z z - 9 a.J.L.P.P.W.!.E.W.W.W.W.E.K.L.K.j.#.+ l l c z c c c ` [ [ [ [ [ [ } } =. . . . . . .",
" . . . . . .=.{ { { [ [ ' [ ' [ ] [ ] b - 0 a.j.U.W.!.!.!.W.!.W.W.!.!.!.W.A.h.#.O l ' ] [ ' [ ' ] { { { [ [ } ;.>. . . . . . . .",
" . . . . . .:.;.-.{ { { { [ [ } [ { { b a p G u.A.H.G.H.G.G.G.G.H.G.G.G.G.s.8.j y c ' { { [ { [ } } { { =.-.;. . . . . . . . . .",
" . . . . . . . .,.} { { [ } [ [ [ ] ] v l 7 q @.8.8.8.8.8.8.8.9.8.8.8.8.8.8.A > a c ' ' ' } [ { [ { { [ -. . . . . . . . . . . .",
" . . . . . . . .>.} { { { [ } [ ' z c z - % Y % o o o o o o o o o o o o o o M M O d z c v { { [ { [ { [ -. . . . . . . . . . . .",
" . . . . . . . .,.} { } [ [ [ [ ' c l *   2 R Y U U U Y U Y Y Y Y Y U U U Y R m   @ a c v { { [ { { { [ -. . . . . . . . . . . .",
" . . . . . . . . .>.;.:.-.} } } ] l ; r N N T w 2 2 2 3 2 2 2 2 3 3 2 % 3 Y Q Y M M > i ` [ { [ | :.;.:.,. . . . . . . . . . . .",
" . . . . . . . . . . . .>.} } [ ] l O N E Y t Z S H F . g n n h O D  .S S t B E E R % , v [ { [ =. . . . . . . . . . . . . . . .",
" . . . . . . . . . . . .:.} [ { ' d O / 6.T # e.a.G.S.; O.3.3.1.; t.J.a.p.6 B 6.5.5.4 - v [ { [ =. . . . . . . . . . . . . . . .",
" . . . . . . . . . . . .:.{ { [ ] s @ x.^.x.7 q.p.f.d.$ O.3.3.1.; r.H.p.e.9 k.C.C.V.V - b [ { [ =. . . . . . . . . . . . . . . .",
" . . . . . . . . . . . .>.{ [ { ] s o n./.^.c.j 6 8 1 + O.3.3.1.# : 7 6 e z.B././.^.V = v [ [ [ o. . . . . . . . . . . . . . . .",
" . . . . . . . . . . . .:.{ { { ] ` a ^ ( ) ( o         d h x g           ^ ) ) ) ( g l ' } } [ o. . . . . . . . . . . . . . . .",
" . . . . . . . . . . . .:.{ { { { [ c   * O   3 3 3 3 5 ~ ^ ^ ^ ^ r 3 4 4 2 o   * * d ' } } [ [ o. . . . . . . . . . . . . . . .",
" . . . . . . . . . . . .,.{ [ { { [ c c c a . U W R R ! N.C./.C.^.7.R E W W 5 = z z c ` { [ { [ =. . . . . . . . . . . . . . . .",
" . . . . . . . . . . . .>.} { [ { ' c c c a o U W W ! ! N./.C./.^.7.E Q W W w = z c c ` [ { [ [ o. . . . . . . . . . . . . . . .",
" . . . . . . . . . . . .>.{ { { { ] v c c i . U R 7.m.m.C.C././.^.M.m.v.! W w = z c c ` { [ [ [ o. . . . . . . . . . . . . . . .",
" . . . . . . . . . . . .>.{ [ { { ] c i y = o Y R l././././././.^.^.^.N.! Q w +   y s ` { [ { [ o. . . . . . . . . . . . . . . .",
" . . . . . . . . . . . .>.{ { [ [ [ c @       M N _ n.c.n.n.n.c.n.b.b.l.I N 2       a ` { { { [ o. . . . . . . . . . . . . . . .",
" . . . . . . . . . . . .:.{ [ { [ [ c @       # # # & o . + . . O O # & & #         a ` { [ { { o. . . . . . . . . . . . . . . .",
" . . . . . . . . . . . .:.{ [ { { [ c @     @ 9.e.w.#.X             C w.q.w.j       i ` { { { { o. . . . . . . . . . . . . . . .",
" . . . . . . . . . . . .>.{ [ [ [ [ c i i , # e.g.g.w.@ , u y y y + G s.g.g.S O y i l ` { { { ] o. . . . . . . . . . . . . . . .",
" . . . . . . . . . . . .,.' } } } ' ` c c u + K ....G + s c c c c @ 9 @.@.@.9 ; c c c ` ' } } } o. . . . . . . . . . . . . . . .",
" . . . . . . . . . . . .,.X.} } } ' v v ` g O O O O + @ d c ` c c , + O O O O , z v v ` } } } ' o. . . . . . . . . . . . . . . .",
" . . . . . . . . . . . .>.} } } [ } } X.` c z z c l l c c ' { { v z z z z z c z b ' [ } } } } } -. . . . . . . . . . . . . . . .",
" . . . . . . . . . . . . .>.:.>.>.>.>. .;.;.;.;.;.;.;.;.;.:.>.,.;.;.;.;.;.;.;.>.:.>.>.>.>.>.>. .,. . . . . . . . . . . . . . . .",
" . . . . . . . . . . . . . . . . . . . . . . . . . . . . . . . . . . . . . . . . . . . . . . . . . . . . . . . . . . . . . . . .",
" . . . . . . . . . . . . . . . . . . . . . . . . . . . . . . . . . . . . . . . . . . . . . . . . . . . . . . . . . . . . . . . .",
" . . . . . . . . . . . . . . . . . . . . . . . . . . . . . . . . . . . . . . . . . . . . . . . . . . . . . . . . . . . . . . . .",
" . . . . . . . . . . . . . . . . . . . . . . . . . . . . . . . . . . . . . . . . . . . . . . . . . . . . . . . . . . . . . . . .",
" . . . . . . . . . . . . . . . . . . . . . . . . . . . . . . . . . . . . . . . . . . . . . . . . . . . . . . . . . . . . . . . .",
" . . . . . . . . . . . . . . . . . . . . . . . . . . . . . . . . . . . . . . . . . . . . . . . . . . . . . . . . . . . . . . . .",
" . . . . . . . . . . . . . . . . . . . . . . . . . . . . . . . . . . . . . . . . . . . . . . . . . . . . . . . . . . . . . . . .",
" . . . . . . . . . . . . . . . . . . . . . . . . . . . . . . . . . . . . . . . . . . . . . . . . . . . . . . . . . . . . . . . .",
" . . . . . . . . . . . . . . . . . . . . . . . . . . . . . . . . . . . . . . . . . . . . . . . . .2. . . . . . . . . . . . . . .",
" . . . . . . . . . . . . . . . . . . . . . . . . . . . . . . . . . . . . . . . . . . . . . . . . . . . . . . . . . . . . . . . .",
" . . . . . . . . . . . . . . . . . . . . . . . . . . . . . . . . . . . . . . . . . . . . . . . . . . . . . . . . . . . . . . . .",
" . . . . . . . . . . . . . . . . . . . . . . . . . . . . . . . . . . . . . . . . . . . . . . . . . . . . . . . . . . . . . . . ."
};
