/* XPM */
static char *result[] = {
/* columns rows colors chars-per-pixel */
"64 64 139 2 ",
"   c #010101",
".  c #090900",
"X  c #0A0A0C",
"o  c #100F06",
"O  c #131206",
"+  c #191700",
"@  c #191802",
"#  c #171608",
"$  c #181709",
"%  c #18180A",
"&  c #141415",
"*  c #17171D",
"=  c #17181B",
"-  c #1B1B1B",
";  c #27260D",
":  c #28270E",
">  c #2A290C",
",  c #312F07",
"<  c #302E0C",
"1  c #35330C",
"2  c #38360F",
"3  c #20201F",
"4  c #28271B",
"5  c #29281B",
"6  c #383611",
"7  c #3D3A12",
"8  c #3E3C1B",
"9  c #1D1D22",
"0  c #242424",
"q  c #2A2A2A",
"w  c #323225",
"e  c #2F3032",
"r  c #343436",
"t  c #333439",
"y  c #3D3D3D",
"u  c #413E12",
"i  c #403F39",
"p  c #434014",
"a  c #4F4C11",
"s  c #474418",
"d  c #524E15",
"f  c #545117",
"g  c #565319",
"h  c #59561E",
"j  c #625E1C",
"k  c #65611E",
"l  c #6E6A1F",
"z  c #444220",
"x  c #4B4927",
"c  c #47452F",
"v  c #4B4928",
"b  c #524F27",
"n  c #5E5B22",
"m  c #56532B",
"M  c #494730",
"N  c #4B4A33",
"B  c #42423C",
"V  c #49483F",
"C  c #5D5A32",
"Z  c #615E26",
"A  c #605D34",
"S  c #666221",
"D  c #6A6623",
"F  c #6E6A23",
"G  c #66622A",
"H  c #726E24",
"J  c #757126",
"K  c #7F7A25",
"L  c #767228",
"P  c #7B772B",
"I  c #7E792A",
"U  c #3D3D43",
"Y  c #434343",
"T  c #4A4A4C",
"R  c #5C5B44",
"E  c #57564A",
"W  c #58584C",
"Q  c #4C4D52",
"!  c #545455",
"~  c #5B5B55",
"^  c #525359",
"/  c #5B5B5C",
"(  c #605F48",
")  c #63635D",
"_  c #5E5E62",
"`  c #636364",
"'  c #6B6B66",
"]  c #656569",
"[  c #6C6C6D",
"{  c #7A7A6E",
"}  c #6F6F73",
"|  c #6F7072",
" . c #737374",
".. c #75757B",
"X. c #77787A",
"o. c #7C7C7D",
"O. c #817C27",
"+. c #817C29",
"@. c #8B852E",
"#. c #8E882F",
"$. c #918C2F",
"%. c #938D30",
"&. c #9F9935",
"*. c #A09A36",
"=. c #A69F38",
"-. c #A6A038",
";. c #AAA439",
":. c #AFA83B",
">. c #B1AA3B",
",. c #838383",
"<. c #868689",
"1. c #8E8E8C",
"2. c #92928F",
"3. c #8E8E91",
"4. c #959595",
"5. c #9A9A95",
"6. c #969699",
"7. c #9A9A9B",
"8. c #9F9FA1",
"9. c #A3A3A4",
"0. c #A6A6A9",
"q. c #AAAAAC",
"w. c #B0B0AF",
"e. c #AEAEB1",
"r. c #B3B3B3",
"t. c #BCBCBC",
"y. c #C0BFBE",
"u. c #C0C0BE",
"i. c #BFC0C1",
"p. c #C3C3C3",
"a. c #CBCBCB",
"s. c #D4D4D4",
"d. c #DBDBDB",
"f. c #E2E2E3",
"g. c #E7E7E8",
"h. c #EBEBEB",
"j. c #F4F4F4",
"k. c #FCFCFC",
"l. c None",
/* pixels */
"l.l.l.l.l.l.l.l.l.l.l.l.l.l.l.l.l.l.l.l.l.l.l.l.l.l.l.l.l.l.l.l.l.l.l.l.l.l.l.l.l.l.l.l.l.l.l.l.l.l.l.l.l.l.l.l.l.l.l.l.l.l.l.l.",
"l.l.l.l.l.l.l.l.l.l.l.l.l.l.l.l.l.l.l.l.l.l.l.l.l.l.l.l.l.l.l.l.l.l.l.l.l.l.l.l.l.l.l.l.l.l.l.l.l.l.l.l.l.l.l.l.l.l.l.l.l.l.l.l.",
"l.l.l.l.l.l.l.l.l.l.l.l.l.l.l.l.l.l.l.l.l.l.l.l.l.l.l.l.l.l.l.l.l.l.l.l.l.l.l.l.l.l.l.l.l.l.l.l.l.l.l.l.l.l.l.l.l.l.l.l.l.l.l.l.",
"l.l.l.l.l.l.l.l.l.l.l.l.l.l.l.l.l.l.l.l.l.l.l.l.l.l.l.l.l.l.l.l.l.l.l.l.l.l.l.l.l.l.l.l.l.l.l.l.l.l.l.l.l.l.l.l.l.l.l.l.l.l.l.l.",
"l.l.l.l.l.l.l.l.l.l.l.l.l.l.l.l.l.l.l.l.l.l.l.l.l.l.l.l.l.l.l.l.l.l.l.l.l.l.l.l.l.l.l.l.l.l.l.l.l.l.l.l.l.l.l.l.l.l.l.l.l.l.l.l.",
"l.l.l.l.l.l.l.l.l.l.l.l.l.l.l.l.l.l.l.l.l.l.l.l.l.l.l.l.l.l.l.l.l.l.l.l.l.l.l.l.l.l.l.l.l.l.l.l.l.l.l.l.l.l.l.l.l.l.l.l.l.l.l.l.",
"l.l.l.l.l.l.l.l.l.l.l.l.l.l.l.l.l.l.l.l.l.l.l.l.l.l.l.l.l.l.l.l.l.l.l.l.l.l.l.l.l.l.l.l.l.l.l.l.l.l.l.l.l.l.l.l.l.l.l.l.l.l.l.l.",
"l.l.l.l.l.l.l.l.l.l.l.l.l.l.l.l.l.l.l.l.l.l.l.l.l.l.l.l.l.l.l.l.l.l.l.l.l.l.l.l.l.l.l.l.l.l.l.l.l.l.l.l.l.l.l.l.l.l.l.l.l.l.l.l.",
"l.l.l.l.l.l.l.l.l.l.l.l.l.l.l.l.l.l.l.l.l.l.l.l.l.l.l.l.l.l.l.l.l.l.l.l.l.l.l.l.l.l.l.l.l.l.l.l.l.l.l.l.l.l.l.l.l.l.l.l.l.l.l.l.",
"l.l.l.l.l.l.l.l.l.l.l.l.l.l.l.l.l.l.l.l.l.l.l.l.l.l.l.l.l.l.l.l.l.l.l.l.l.l.l.l.l.l.l.l.l.l.l.l.l.l.l.l.l.l.l.l.l.l.l.l.l.l.l.l.",
"l.l.l.l.l.l.l.l.l.l.l.l.l.l.l.l.l.l.l.l.l.l.l.l.l.l.l.l.l.l.l.l.l.l.l.l.l.l.l.l.l.l.l.l.l.l.l.l.l.l.l.l.l.l.l.l.l.l.l.l.l.l.l.l.",
"l.l.l.l.l.l.l.l.l.l.l.l.l.l.l.l.l.l.l.l.l.l.l.l.l.l.l.l.l.l.l.l.l.l.l.l.l.l.l.l.l.l.l.l.l.l.l.l.l.l.l.l.l.l.l.l.l.l.l.l.l.l.l.l.",
"l.l.l.l.l.l.l.l.l.l.l.l.l.l.l.l.l.l.l.l.l.l.l.l.l.l.l.l.l.l.l.l.l.l.l.l.l.l.l.l.l.l.l.l.l.l.l.l.l.l.l.l.l.l.l.l.l.l.l.l.l.l.l.l.",
"l.l.l.l.l.l.l.l.l.l.l.l.l.l.l.l.l.l.l.l.l.l.l.l.l.l.l.l.l.l.l.l.l.l.l.l.l.l.l.l.l.l.l.l.l.l.l.l.l.l.l.l.l.l.l.l.l.l.l.l.l.l.l.l.",
"l.l.l.l.l.l.l.l.l.l.l.l.l.l.l.l.l.l.l.l.l.l.l.l.l.l.l.l.l.l.l.l.l.l.l.l.l.l.l.l.l.l.l.l.l.l.l.l.l.l.l.l.l.l.l.l.l.l.l.l.l.l.l.l.",
"l.l.l.l.l.l.l.l.l.l.l.l.l.l.l.l.l.l.l.l.l.l.l.l.l.l.l.l.l.l.l.l.l.l.l.l.l.l.l.l.l.l.l.l.l.l.l.l.l.l.l.l.l.l.l.l.l.l.l.l.l.l.l.l.",
"l.l.l.l.l.l.l.l.l.l.l.l.l.l.l.l.l.;.;.;.;.;.;.l.l.l.l.l.l.l.l.l.l.l.l.l.l.l.l.l.l.l.l.l.l.l.l.l.l.l.l.l.l.l.l.l.l.l.l.l.l.l.l.l.",
"l.l.l.l.l.l.l.l.l.l.l.l.l.l.l.l.*.*.*.&.*.*.*.*.l.l.l.l.l.l.l.l.l.l.l.l.l.l.l.l.l.l.l.l.l.l.l.l.l.l.l.l.l.l.l.l.l.l.l.l.l.l.l.l.",
"l.l.l.l.l.l.l.l.l.l.l.l.l.l.l.l.@.@.@.@.@.@.@.@.l.l.l.l.l.l.l.l.l.l.l.l.l.l.l.l.l.l.l.l.l.l.l.l.l.l.l.l.l.l.l.l.l.l.l.l.l.l.l.l.",
"l.l.l.l.l.l.l.l.l.l.l.l.l.l.l.I H k j j h j k H I l.l.l.l.l.l.l.l.l.l.l.l.l.l.l.l.l.l.l.l.l.l.l.l.l.l.l.l.l.l.l.l.l.l.l.l.l.l.l.",
"l.l.l.l.l.l.l.l.l.l.l.l.l.;.%.J g 7 2 > , 1 u f J %.;.l.l.l.l.l.l.l.l.l.l.l.l.l.l.l.l.l.l.l.l.l.l.l.l.l.l.l.l.l.l.l.l.l.l.l.l.l.",
"l.l.l.l.l.l.l.l.l.l.l.l.;.&.@.D s : % o O $ > s D @.&.;.l.l.l.l.l.l.l.l.l.l.l.l.l.l.l.l.l.l.l.l.l.l.l.l.l.l.l.l.l.l.l.l.l.l.l.l.",
"l.l.l.l.l.l.l.l.l.l.l.l.%.@.P G x w q 9 9 0 w x G I @.$.l.l.l.l.l.l.l.l.l.l.l.l.l.l.l.l.l.l.l.l.l.l.l.l.l.l.l.l.l.l.l.l.l.l.l.l.",
"l.l.l.l.l.l.l.l.l.l.l.K F S n C R ) _ _ _ ` ~ R C Z k l K l.l.l.l.l.l.l.l.l.l.l.l.l.l.l.l.l.l.l.l.l.l.l.l.l.l.l.l.l.l.l.l.l.l.l.",
"l.l.l.l.l.l.l.l.l.;.%.l d u s R { 4.0.w.e.0.4.{ R s 7 a l $.;.>.:.;.;.;.;.;.;.;.;.;.;.;.;.;.;.;.;.;.;.;.;.;.;.;.;.;.;.l.l.l.l.l.",
"l.l.l.l.l.l.l.l.;.&.@.k p : w ~ 1.u.d.g.g.d.y.1.~ w : 7 j @.&.=.=.*.*.*.*.*.*.*.*.*.*.*.*.*.&.&.*.&.&.&.*.*.*.*.*.*.*.&.l.l.l.l.",
"l.l.l.l.l.l.l.l.%.@.P Z z w y ` 4.u.d.g.g.d.p.6.` y w u Z P @.#.@.@.@.@.@.@.@.@.@.@.@.@.@.@.@.@.@.@.@.@.@.@.#.@.@.@.#.#.l.l.l.l.",
"l.l.l.l.l.l.l.K J D G A R ~ ] X.3.8.q.w.w.q.9.1.X.] ~ W C Z j j j j j j j j j j j j j j j j j j j j j j j j j Z S S D J I l.l.l.",
"l.l.l.l.l.*.@.H g s x ( { 2.6.3.o.[ ` ) / ` [ o.3.7.2.{ R z 1 , , 1 1 2 1 1 1 1 1 1 1 1 1 1 1 1 1 1 1 1 1 1 1 1 6 7 s h L #.*.;.",
"l.l.l.l.;.*.@.k 7 : w / 5.u.p.8.[ y 0 = - 0 y [ 8.p.y.5.) w % o O # % % # # $ $ $ $ $ $ $ $ $ O # $ $ $ $ $ # O O # : s D @.*.;.",
"l.l.l.l.;.*.@.j 1 $ 0 / 8.a.s.9.` 0         0 / 9.s.s.w. .Y 0 - 3 3 0 0 0 0 0 0 0 0 0 3 0 0 0 0 0 0 0 0 0 0 9 & X   # 7 G @.*.;.",
"l.l.l.l.;.*.@.j 1 O - ^ 6.a.a.6.! -         = ! 4.a.s.i.7. ._ / / _ _ _ _ _ / ` _ _ _ _ / / / / _ _ _ _ _ ^ T e 9 X O 6 S @.*.;.",
"l.l.l.l.;.*.#.j 1 O - Q <.r.r.1.T =         & T ,.r.a.a.t.e.0.0.0.0.0.0.0.0.0.0.0.0.9.0.9.8.9.9.9.0.0.0.0.8.<._ t & O 6 Z @.*.;.",
"l.l.l.l.;.*.@.j 1 # - Y X.9.7.o.Y -         - B  .9.i.a.s.d.d.d.d.d.d.d.d.d.d.d.d.d.d.d.d.d.d.d.d.d.d.f.f.d.i.<.T 9 # 1 j @.*.;.",
"l.l.l.l.;.*.@.k 6 # = U  .4.4. .Y -         = y [ 7.r.p.a.s.d.d.d.d.d.d.d.d.d.d.d.d.f.h.j.k.k.j.g.d.f.h.k.j.d.8./ 0 # 1 j @.*.;.",
"l.l.l.l.;.*.@.j 1 O & U } 4.4. .Y &         & y [ 4.q.r.e.q.0.0.0.0.0.0.9.0.q.9.0.q.r.s.h.k.k.h.a.t.t.s.j.k.h.q._ 0 # 1 j @.*.;.",
"l.l.l.l.;.*.@.j 1 O = U  .4.4. .B &         & y  .4.9.7.,.[ _ / / ` _ _ _ _ _ _ / ] o.9.s.j.j.s.9.o.o.9.s.k.h.e.] 0 # 1 j @.&.;.",
"l.l.l.l.;.*.@.k 6 $ = U | 4.4. .Y -         = Y  .4.7.o.~ y 0 9 3 0 0 0 0 0 0 3 - 0 Y X.t.f.d.r. .Y Y  .r.d.d.0._ 0 $ 1 j @.&.;.",
"l.l.l.l.;.*.@.D p : 4 B ` ,.,.} T q = o o - q T [ ,.,.' Y 5 % O # # $ $ $ # O .   . 9 ^ 4.t.t.1.Q 3 0 T 2.t.t.3.Q 0 # 1 j @.&.;.",
"l.l.l.l.l.*.@.H g s z N E ` ] _ ! T Y Y Y Y T ! _ ` ) E M 7 1 , , 1 1 1 1 1 > + .   X t ` <.<._ r X X e ` ,.<.] t & O 2 j @.*.;.",
"l.l.l.l.l.l.l.+.J D Z m N i Y Q _ [  .X. . .[ ` Q Y i c b n j j k j j k k j f 6 +     9 r T T r * X   = t T T t 9 X O 6 Z @.*.;.",
"l.l.l.l.l.l.l.l.%.@.I n 8 5 q Y ` ,.4.7.7.6.,.` Y q 4 8 n P @.#.#.@.@.#.#.@.J g < O   X = - - = X   . X = 3 - = X   # 7 S #.*.;.",
"l.l.l.l.l.l.l.l.;.*.@.k p : 4 y ` ,.4.7.7.4.,.` B 4 : u k @.&.=.-.*.*.*.-.&.@.D p : # O O # # # O $ # # O $ $ O O # ; p D @.*.;.",
"l.l.l.l.l.l.l.l.l.;.%.H f p u N E `  . . . .` W N 8 u d F $.;.>.:.;.;.>.:.;.%.P n s 8 6 2 1 2 2 6 7 7 7 2 1 1 6 6 7 s n L #.*.;.",
"l.l.l.l.l.l.l.l.l.l.l.O.H S Z m N B U U U U B N m Z S H O.l.l.l.l.l.l.l.l.l.l.+.H D G k k j j k G S S S j j j j S G D J I l.l.l.",
"l.l.l.l.l.l.l.l.l.l.l.l.$.@.P Z z 4 * & & - 5 z Z P @.$.l.l.l.l.l.l.l.l.l.l.l.l.#.@.@.@.@.@.@.@.@.@.@.@.@.@.@.@.@.@.@.#.l.l.l.l.",
"l.l.l.l.l.l.l.l.l.l.l.l.;.*.@.D s : # o o $ : s D #.&.;.l.l.l.l.l.l.l.l.l.l.l.l.*.*.*.*.*.*.*.*.*.*.*.*.*.*.*.*.*.*.*.*.l.l.l.l.",
"l.l.l.l.l.l.l.l.l.l.l.l.l.;.%.H h p 1 1 1 6 u g H %.;.l.l.l.l.l.l.l.l.l.l.l.l.l.l.;.;.;.;.;.;.;.;.;.;.;.;.;.;.;.;.;.;.l.l.l.l.l.",
"l.l.l.l.l.l.l.l.l.l.l.l.l.l.l.+.H k j j Z j D H O.l.l.l.l.l.l.l.l.l.l.l.l.l.l.l.l.l.l.l.l.l.l.l.l.l.l.l.l.l.l.l.l.l.l.l.l.l.l.l.",
"l.l.l.l.l.l.l.l.l.l.l.l.l.l.l.l.$.@.#.@.@.@.@.@.l.l.l.l.l.l.l.l.l.l.l.l.l.l.l.l.l.l.l.l.l.l.l.l.l.l.l.l.l.l.l.l.l.l.l.l.l.l.l.l.",
"l.l.l.l.l.l.l.l.l.l.l.l.l.l.l.l.*.*.*.*.*.*.*.*.l.l.l.l.l.l.l.l.l.l.l.l.l.l.l.l.l.l.l.l.l.l.l.l.l.l.l.l.l.l.l.l.l.l.l.l.l.l.l.l.",
"l.l.l.l.l.l.l.l.l.l.l.l.l.l.l.l.l.;.;.;.;.;.;.l.l.l.l.l.l.l.l.l.l.l.l.l.l.l.l.l.l.l.l.l.l.l.l.l.l.l.l.l.l.l.l.l.l.l.l.l.l.l.l.l.",
"l.l.l.l.l.l.l.l.l.l.l.l.l.l.l.l.l.l.l.l.l.l.l.l.l.l.l.l.l.l.l.l.l.l.l.l.l.l.l.l.l.l.l.l.l.l.l.l.l.l.l.l.l.l.l.l.l.l.l.l.l.l.l.l.",
"l.l.l.l.l.l.l.l.l.l.l.l.l.l.l.l.l.l.l.l.l.l.l.l.l.l.l.l.l.l.l.l.l.l.l.l.l.l.l.l.l.l.l.l.l.l.l.l.l.l.l.l.l.l.l.l.l.l.l.l.l.l.l.l.",
"l.l.l.l.l.l.l.l.l.l.l.l.l.l.l.l.l.l.l.l.l.l.l.l.l.l.l.l.l.l.l.l.l.l.l.l.l.l.l.l.l.l.l.l.l.l.l.l.l.l.l.l.l.l.l.l.l.l.l.l.l.l.l.l.",
"l.l.l.l.l.l.l.l.l.l.l.l.l.l.l.l.l.l.l.l.l.l.l.l.l.l.l.l.l.l.l.l.l.l.l.l.l.l.l.l.l.l.l.l.l.l.l.l.l.l.l.l.l.l.l.l.l.l.l.l.l.l.l.l.",
"l.l.l.l.l.l.l.l.l.l.l.l.l.l.l.l.l.l.l.l.l.l.l.l.l.l.l.l.l.l.l.l.l.l.l.l.l.l.l.l.l.l.l.l.l.l.l.l.l.l.l.l.l.l.l.l.l.l.l.l.l.l.l.l.",
"l.l.l.l.l.l.l.l.l.l.l.l.l.l.l.l.l.l.l.l.l.l.l.l.l.l.l.l.l.l.l.l.l.l.l.l.l.l.l.l.l.l.l.l.l.l.l.l.l.l.l.l.l.l.l.l.l.l.l.l.l.l.l.l.",
"l.l.l.l.l.l.l.l.l.l.l.l.l.l.l.l.l.l.l.l.l.l.l.l.l.l.l.l.l.l.l.l.l.l.l.l.l.l.l.l.l.l.l.l.l.l.l.l.l.l.l.l.l.l.l.l.l.l.l.l.l.l.l.l.",
"l.l.l.l.l.l.l.l.l.l.l.l.l.l.l.l.l.l.l.l.l.l.l.l.l.l.l.l.l.l.l.l.l.l.l.l.l.l.l.l.l.l.l.l.l.l.l.l.l.l.l.l.l.l.l.l.l.l.l.l.l.l.l.l.",
"l.l.l.l.l.l.l.l.l.l.l.l.l.l.l.l.l.l.l.l.l.l.l.l.l.l.l.l.l.l.l.l.l.l.l.l.l.l.l.l.l.l.l.l.l.l.l.l.l.l.l.l.l.l.l.l.l.l.l.l.l.l.l.l.",
"l.l.l.l.l.l.l.l.l.l.l.l.l.l.l.l.l.l.l.l.l.l.l.l.l.l.l.l.l.l.l.l.l.l.l.l.l.l.l.l.l.l.l.l.l.l.l.l.l.l.l.l.l.l.l.l.l.l.l.l.l.l.l.l.",
"l.l.l.l.l.l.l.l.l.l.l.l.l.l.l.l.l.l.l.l.l.l.l.l.l.l.l.l.l.l.l.l.l.l.l.l.l.l.l.l.l.l.l.l.l.l.l.l.l.l.l.l.l.l.l.l.l.l.l.l.l.l.l.l.",
"l.l.l.l.l.l.l.l.l.l.l.l.l.l.l.l.l.l.l.l.l.l.l.l.l.l.l.l.l.l.l.l.l.l.l.l.l.l.l.l.l.l.l.l.l.l.l.l.l.l.l.l.l.l.l.l.l.l.l.l.l.l.l.l."
};
