/* XPM */
static char *result[] = {
/* columns rows colors chars-per-pixel */
"64 64 24 1 ",
"  c #563F3D",
". c #55403E",
"X c #59413E",
"o c #4E3E46",
"O c #513F44",
"+ c #524046",
"@ c #5C4342",
"# c #554248",
"$ c #5B4449",
"% c #614642",
"& c #674945",
"* c #6B4B47",
"= c #624749",
"- c #664A4C",
"; c #6A4B4A",
": c #724F4B",
"> c #77514C",
", c #79524D",
"< c #714F50",
"1 c #765251",
"2 c #7C5451",
"3 c #815651",
"4 c #865954",
"5 c #8B5C56",
/* pixels */
"oo#$=>>,>>>>>>>>>>>>>>:=$++oo++ooo#$-<>>>>>>>>>>>>>>>>>&@#ooo+++",
"o+#$;:>>>>>>>,>>>>>>,>:;=##+++++++#$-1>>,>>>>>>>>,>>>>:*$###o+o+",
"+$$=;>>>>>>>>>>>>>>>>>>;-$####+++##-->>>,>>>>>>>>>>>>>>*=$$##o#o",
"$$=;;:>>>>>>>>>>,>>>>>>:;--$##++##--;>>>>,>>,>>>,>>>>>>:;;-$###o",
";;;;:>>>>>>>>>>>>>>>>,>,111-$$#$$=;;>>>>>>>>>>>>>>>>>>>>11<-$##o",
":::>>>>>>>,>>>>>>>>>>>,2342<$$$$;;>>>>>>>,>>,>>>>>>>>>>3252<-#+o",
">>>>>>>>>>>>>>>>>>>>>>,45531-$$$;:>>>>>>>>>>>>>>>>>>>>,35522-#+o",
">,>,>>>>>>>>>>,>>>>>>>,34542-$#$=>>,,>>>>>>>>>>>>>>>>>335552-#oo",
"3>>>>>>>>>>>,>>>>>>>>>,34541-$$$;:>>,>>>>,>>>>>,>>>>>,,34541-$##",
">>>>>>>>>>>>>>>>>>>>>>,34541-$#$;:>>>>>>>>>>>>>>>>>>>,134541-$+o",
">>>>>>>>,>>>>,>>>>>>>>>34541-$#$;:>>>>>>>>>>>>>>>>>>>>,34521-#+o",
">>>>,>>>>>>>>>>>>>>>>>134541-$$$->>>,>>>>>>>>>>>>>>>>>,35551-#+o",
">>>>>>>>>>,>>>>>>>>>>>134441-##$;:>>>>,>>>>>>>>>>>>>>>135551-$#+",
">>>>>>>>>>>>>>>>>>>>>,,35541-$#$-:>>>>>>>>>>>>>>>>>>>>,35521-$+o",
">>>>>>,>>>>>>>>,>>>>>>234541-$$$;:>>,>>>>>>>>>>>>>>>11155551-#+o",
">>>>>>>>>>>>>>>>>>>>>>224541-$#$=>>>>>>>>>>>>,>>>>>>1112252<-#+o",
">>>>>>>>>>>>>>>>>>>>>>,35441-$#$&:>>>>>>>>>>>>>>>>>>>>,24541-$++",
">>>>3>>>>>>>>>>>>>>>>>,34541-$$$&:>,,>>>>>>>>>>>>>>>>,,34551-$++",
">>>>>>>>>>>>>>>>>>>>>,,35541-$#$*:>,>>>>>>>>>>>>>>>>,,,4454,-#+o",
">>>>>>>>>>>>>>>>>>>>,3355541-$$$&:>,>>>>>>>>>>>>>>>,,335554,-++o",
">>>>>>>>>>>>>>>>>>,,34455551;$$$;:>>>>>>>>>>>>>>>>,,34555542-$++",
">>>>>>>>>>>>>>>>>,,,34555551-$+$;:>>,,>>>>>>>>>>>>,234555541-$++",
">>>>>>>>,,,>,3,>,,3355555421=$#$&:>>,,,2,,,,,,,,,,234555552<$#++",
"***>>333333333333344555542>;$#+$$&*>,33333,3333323445555421-$+++",
"%&**,3445444444444455555,:*%##++@%&:234444535444445555542<&=$@++",
"XX&*,4555555555555555553:&@@++++@@&*,455555555555555554,:-@.++++",
"  %*:344444434434444533:*@OO++o++.@&>344444333444444542>&@@+++++",
"   %*>,,3,,,3,,3,3,,,,:*%@ Oo++++.@=*,,,3,,33,,3,,,2,2>:=@+.++++",
"OO#%%*****************&&@+Oo++++++#@&******************%+++++o++",
"O#++@@%%%%%%%%%%%%%%%%%@#+++++++++++X@%%%&%%%%%%%%%%&%@@++++++++",
"OOO+#@XX%X%XX%X%X%X%XX% @++++++o+++@@XXXXXX%%X%XX%X%XXX#+++o+++o",
"O###@%&&%%%%%%%%%%%%%&%%#OOoo++++++#@%&&&%%%%%%%%%%%&%%##+ooo+++",
"o#+#%**************&***$#+ooo++++++$$&*****************%X.+oo+++",
"O+#$**:>:::>::>:::>>>>;=####++++++#$;::::>:::::>::::::**$@++++++",
"##@%*:>,>>>>>>>>>>>>>>>;-$###o+++##-*:>>,>>>>>>>>>>>>>::=$$#+++o",
"=$&**:>,,>>>>>>,>>,,>>>><--$##+#+$$;:>,,,>,>>>>>>,>,>>>:>--$##+o",
";=;::>>>>,>,,>,>>>>,>>1,11<-$$##$;;::>>>,>,,>>>>,>,>,>>,11<-$##+",
":::>>>>>>>>>>>>>>>>>>>,22521-##$&;:>>>>>>>>>>>>>>>>>>>,3252<-#++",
">>>>>>>>>>>>>>>>>>>>>>144541-$#$;:>,>>>>>>>>>>>>>>>>>>,35522-#+o",
",,>>,>>>>>>>>>,>>>>>11224542-$$$-:>,>>>>>>>>>>,>>>>>>>,35551-#oo",
">>,>>>>,,>>>>>>>>>>>>>,35541-$$$;:>>>>>>>>>>>>>>>>>>>,,35551-$#+",
">>>>>>>>>>>>>>>>>>>>>>,34541-$$$-:>>,>>>,>>>>>>>>>>>>,,34551-$++",
">>>>>>>>>>>>>>>>>>>>>>,34542-$#$;:>>>>>>>,>>>>,>>>>>>>234541-#++",
">,>>>>>>>>>>>,>>>>>>>>,34441-$#$&>>>,>>>>>>>>>>>>>>>>>,34521-#+o",
">>>>>>>>>>>>>>>>>>>>>>,34541-$$$;:>>>>>,>>>>>>>>>>>>1>135551-###",
">>>>>,>>>>>>>>>>>>>>>>,34541-$#$-:>>>>>>>>>>>>>>>>>>11,35521-#++",
">>>>>>>>>>>>>>>>>>>>>>,34541-$#$;:>>,>>>>>>>>>>>>>>>11222551-#+o",
">>>>>>>>>>>,>>>>>>>>>,,34441-$#$-:>>>>>>>>>,>,>>>>>>11225521-o+o",
">>>>>>>>>>>>>>>>>>>>>>,3454>-$$$&:>>>>>>>>>>>>>>>>>>>>,24541-$++",
">>>>>>>>>>>>>>>>>>>>>>>3454,-##$&:>,>>>>>>>>>>>>>>>>>,,3455,-$++",
">>>>>>>>>>>>>>>>>>,,>,345541-$$$&>>,>>>>>>>>>>>>>>>>,,33454,-#+o",
",>,>>>>>>>>>>>>>,>>,,2345541-$$$&:>,>,>>>>>>>>>>>>>>,335554,-++o",
">,>>>>>>>>>>>>>>>>,,33555541-$#$;:>>,>>>>>>>>>>>>>,,33555542-$++",
">>>>>>>>>>>,>>>>>>>,45555531-$#$;:>>,,>>>>>>>,>>>>,244555521-$++",
"::>>>>,,,,,,,,>,,,,34555552>-$#$&:>>,,,,,,,,,,,,,2234555552<$#++",
"***>,333333333333344555552>;$$##$&*>,2333333333323444555521-$+++",
"%&**>3455444444444555554,>&@#+++@%&:,354544444354455555421&$$+++",
"XX&*>455555555555555554,:&X#++++@@&*,455555555555555554,:-@@@+++",
".X@*>344454444444445543>&X.++++++.@&>344444433544454553>&@@.++++",
"#.@=*>,,,,,,,,,,,,,,3,>*&@+++++o+.@=*>,,,,,33,,,,,,,2,>*$@++++++",
" ++@&*;****************@@+++o++++++@%******************=++++++++",
"++##@X%%%%%%%%%%X%%%%%@@#@+++++++++@@@%%%X%%%%%%%%%%%X@@++++++++",
"+o+..XXXXXXXXXXXXXXXXX.+++++++++++++.XXXXXXXXXXXXXXXXX.++++o++++",
"++++..         X X......++++++++++++@..X       ........++++o+++o"
};
