/* XPM */
static char *_91113d01f03442d88e9e65df322f003XsvbrtOObXiEY44h[] = {
/* columns rows colors chars-per-pixel */
"64 64 227 2 ",
"   c None",
".  c #010101",
"X  c #0B0605",
"o  c #0C0905",
"O  c #0C0D0C",
"+  c #060D07",
"@  c #130A06",
"#  c #130C0A",
"$  c #1A0D09",
"%  c #130707",
"&  c #0D160A",
"*  c #1B130D",
"=  c #17150D",
"-  c #0E1210",
";  c #131614",
":  c #141B16",
">  c #161C19",
",  c #1B1C1D",
"<  c #1D1A12",
"1  c #2A0E0F",
"2  c #240C0D",
"3  c #27180E",
"4  c #271914",
"5  c #361A13",
"6  c #1B231E",
"7  c #1B2A1C",
"8  c #182917",
"9  c #1B3D16",
"0  c #1B341A",
"q  c #1E3C18",
"w  c #193316",
"e  c #132B0F",
"r  c #25210C",
"t  c #2A2C1D",
"y  c #252618",
"u  c #362718",
"i  c #23331E",
"p  c #213E19",
"a  c #2C3B1A",
"s  c #273617",
"d  c #3B3A1E",
"f  c #33331D",
"g  c #332D0C",
"h  c #1D2520",
"j  c #1F2B24",
"k  c #1F3126",
"l  c #212C25",
"z  c #272A26",
"x  c #372723",
"c  c #2D3D22",
"v  c #233329",
"b  c #25392D",
"n  c #283928",
"m  c #333224",
"M  c #3A3C22",
"N  c #393429",
"B  c #273E30",
"V  c #2B3732",
"C  c #353A37",
"Z  c #2C2E32",
"A  c #421D17",
"S  c #432519",
"D  c #4B241A",
"F  c #4C2B1C",
"G  c #442618",
"H  c #51291C",
"J  c #5A2A1E",
"K  c #4A361D",
"L  c #51361E",
"P  c #462C27",
"I  c #572D27",
"U  c #493728",
"Y  c #573822",
"T  c #573729",
"R  c #5B3D34",
"E  c #553732",
"W  c #453A36",
"Q  c #732C29",
"!  c #6B3429",
"~  c #753A2D",
"^  c #692625",
"/  c #1F4217",
"(  c #214418",
")  c #244918",
"_  c #2B4D1A",
"`  c #27421A",
"'  c #344A1B",
"]  c #2D521A",
"[  c #32541C",
"{  c #355C1B",
"}  c #3B5D1E",
"|  c #39521C",
" . c #3C641C",
".. c #3F681D",
"X. c #385627",
"o. c #2A4334",
"O. c #2B4837",
"+. c #2C4938",
"@. c #39473B",
"#. c #354727",
"$. c #3F6320",
"%. c #474A1E",
"&. c #55471D",
"*. c #445A1D",
"=. c #5E511B",
"-. c #725D1F",
";. c #446C1E",
":. c #40651E",
">. c #484A25",
",. c #584726",
"<. c #5C5326",
"1. c #5B4535",
"2. c #474D33",
"3. c #674824",
"4. c #675C2B",
"5. c #664739",
"6. c #735138",
"7. c #4B6A23",
"8. c #4C7421",
"9. c #4F7A22",
"0. c #537B23",
"q. c #567528",
"w. c #5A7325",
"e. c #597830",
"r. c #4B6730",
"t. c #786628",
"y. c #687928",
"u. c #78792F",
"i. c #7C6C36",
"p. c #7B7E30",
"a. c #6A6832",
"s. c #3A3E40",
"d. c #3D4344",
"f. c #444747",
"g. c #554D48",
"h. c #4C564A",
"j. c #4C5153",
"k. c #4F5956",
"l. c #555858",
"z. c #58574D",
"x. c #795844",
"c. c #65544F",
"v. c #76674B",
"b. c #585D61",
"n. c #5D6364",
"m. c #656767",
"M. c #686D72",
"N. c #75797B",
"B. c #6B7373",
"V. c #822C2E",
"C. c #8A3330",
"Z. c #883932",
"A. c #8E3833",
"S. c #894631",
"D. c #9E5339",
"F. c #945535",
"G. c #9A4D36",
"H. c #A65B3A",
"J. c #897728",
"K. c #967C2B",
"L. c #8C6B33",
"P. c #835C43",
"I. c #8C664B",
"U. c #8F7349",
"Y. c #A87E57",
"T. c #5A8325",
"R. c #5C8527",
"E. c #648C29",
"W. c #6B872A",
"Q. c #75842E",
"!. c #67912A",
"~. c #69932B",
"^. c #6F992C",
"/. c #729C2D",
"(. c #75962D",
"). c #76A12E",
"_. c #7AA62E",
"`. c #7EA92E",
"'. c #7EA830",
"]. c #79887D",
"[. c #839C2E",
"{. c #968032",
"}. c #8D9532",
"|. c #8F882D",
" X c #A68B36",
".X c #A99735",
"XX c #B29A34",
"oX c #A98E2C",
"OX c #81AD2F",
"+X c #81AC30",
"@X c #89A030",
"#X c #8AB632",
"$X c #8DB933",
"%X c #87B231",
"&X c #93BF34",
"*X c #91BE34",
"=X c #92BF34",
"-X c #94B033",
";X c #9CA237",
":X c #B0B035",
">X c #C9B338",
",X c #94C034",
"<X c #95C234",
"1X c #98C034",
"2X c #A7C335",
"3X c #D8CB37",
"4X c #CAC636",
"5X c #AF984E",
"6X c #B8A353",
"7X c #988163",
"8X c #AE946D",
"9X c #CBB643",
"0X c #CAAD4B",
"qX c #CEB76B",
"wX c #E7C955",
"eX c #FCE058",
"rX c #EED56D",
"tX c #FDE273",
"yX c #DAC25A",
"uX c #767C81",
"iX c #7B8187",
"pX c #86868C",
"aX c #919497",
"sX c #999EA6",
"dX c #9EA2AC",
"fX c #A9ACB0",
"gX c #A59D9C",
/* pixels */
"                                                                                                                                ",
"                                                                                                                                ",
"                        q ) {  . . .            6 6 h 6 h 6 6 6 h , h 6 h 6                                                     ",
"                        e 9 ] {  . .            i i c c c c c c c c l i 7 7                                                     ",
"                        + & 9 _         6 h h i ` X.w.q.q.q.q.q.q.7.} _ p 0 7 , h h                                             ",
"                        . + e 9         i i 7 a :.0.~././././.)._.W.0. ._ ( i l 7 7                                             ",
"                        . .     h , , l ` [ [ } 0.~.+X$X#X#X#X#X$X+X~.0. .{ [ [ p 0 7 6 h h                                     ",
"                        . .     7 7 i p 7.8.0.R.~.`.$X&X,X*X,X,X,X$X`.!.0.;. .{ _ p 7 7 7 7                                     ",
"                        . . ; j 0 q _ } 0.!.).+X%X$X&X&X<X&X&X<X,X*X$X+X!.0.7. .{ ] q 0 0 0 7 h                                 ",
"                        + O 8 7 q ]  .0.~.'.$X,X1X&X&X&X&X&X&X&X*X,X,X$X'.!.9.7. .{ _ ( q 9 7 7                                 ",
"                        > > 8 q _  .0.W.'.$X*X,X&X&X&X&X&X&X&X&X&X&X&X*X*X+X~.0.;. .{ ] ( 9 w w 7 6                             ",
"                        m M | *.7.0.~.+X$X&X,X&X&X&X&X&X&X&X&X&X&X&X,X*X$X+X/.E.8.....{ ) ) } >.f m                             ",
"                    h f &.t.K.|.W.!.'.*X*X*X,X*X&X&X&X&X&X&X&X&X&X,X&X$X+X(.^.E.R.T... .] ;.|.J.t.>.f 6                         ",
"                    6 z %.t.oX.X}.}.&X2X2X2X<X,X&X&X&X&X&X&X&X&X&X&X$X+X^.E.E./.@X(.y.w.w.y.{.J.-.&.t 6                         ",
"                    h y a *.W.[..X:X4X3X3X4X2X*X&X&X&X&X&X&X&X&X,X$X`.^.~.W.!.[.:X>XXXoXoX|.<.U m t l 6                         ",
"                    h 7 q { 0.(.;X>X3X3X3X4X2X&X&X&X&X&X&X&X&X*X$X+X^.E.!.!.E.[.:X4X>XXXXXJ.| j 7 7 6 6                         ",
"                    h i _  .T./.-X:X1X2X2X2X,X*X,X*X,X*X*X,X<X$X_.(.~.W.!.!.E.(.[.[.}.(.y.7.} ) p 0 7 6                         ",
"                    6 l } 0.E./.`.$X,X<X<X<X$X<X,X,X,X,X,X*X$X+X^.!.~.~.!.~.~.~.~.E.~.R.9.;.:.{ ) 0 7 6                         ",
"                    , c 7.W.!.~.^._.$X<X,X,X<X<X,X,X,X,X,X$X_.^.~.!.~.~.~.!.~.~.~.E.~.E.E.0.;.{ ( 0 7 h                         ",
"                    h c q.^.!.!.!./.`.$X,X<X<X$X#X%X#X#X#X'.^.!.~.~.!.~.!.~.~.~.~.~.~.~.E.0.;.{ ( 0 7 6                         ",
"                    6 c q.~.~.!.!.^.^.`.#X<X<X$X).^././././.~.~.~.~.!.!.~.~.~.~.~.!.!.E.w.;.:.{ ( p j 7                         ",
"                    h c q.~.~.W.W.y.y.Q.}.;X;X}.|.u.u.Q.W.!.~.~.~.W.Q.p.p.Q.p.p.p.p.u.w.7.*.:.{ ( 0 y 6                         ",
"                    h c q.^.~.W.4.3.3.6.D.H.H.H.H.G.G.L.Q.!.~.~.!.p.F.P.G.D.D.D.G.G.-.3.&.&.*.{ ) 0 7 6                         ",
"                    6 c q.~.~.y.L D D I Q V.V.~ V.V.C.S.i.Q.p.Q.p.L.S.C.V.V.V.V.V.Q J D D K *.{ ) 0 7 6                         ",
"                    6 c q.~.^.7.g % @ $ 2 1 1 1 1 1 A ! S.D.D.D.D.S.I S 1 1 1 1 1 2 $ $ @ 3 ' { ( 0 7 6                         ",
"                    h c q.^.^.w.g X X . . . . . . . o 5 ^ V.V.V.V.^ 5 # . . . . . . . X o r ] { ) 0 7 h                         ",
"                    , c q.~.~.y.&.A 3 $ . . . . . . . % 2 1 1 1 1 2 % . . . . . . . @ 3 G K *.{ ) 0 7 h                         ",
"                    h c q.~.E.w.,.K u 3 * @ . . . . . . . . . . . . . . . . . X @ = 3 u K ,.*.[ ) 0 7 6                         ",
"                    , c q.E.9. .' s 0 s F 5 @ . . . . . . . . . . . . . . . . % 5 F s s s ' } { ) q 7 6                         ",
"                    6 a 8.T.;.{ _ ( / a K F 3 $ $ @ o . . . . . . . . o @ $ $ 3 K K a / ( ) [ ] ( 0 7 6                         ",
"                    h n X.;... .{ ] ( q ` f F H H S 3 $ . . . . . . $ 3 G F H F d s q / ] [ _ ( ( 0 7 6                         ",
"                    h 7 '  . . . .{ ] / / a K L Y L S 3 % . . . . % 3 S L Y Y K p / / _  .{ ) 9 q 0 7 h                         ",
"                    h 7 q ]  . . . .{ ] / q a a a d H G @ . . . . @ G L f a a a q ( ]  . .[ ( q 9 9 j 7                         ",
"                    h 7 0 q _ {  . . .{ _ / / 9 9 a Y H $ . . . . $ H Y a q 9 q ( _ {  . .] ( 9 0 8 > ;                         ",
"                        6 7 q _  . . . .{ ] / 9 9 a Y H $ . . . . $ F Y a 9 9 ( ] {  .{ _ / / 9 7 : + .                         ",
"                        M M p q ) [  . . . ._ ( / a Y F $ . . . . $ H Y a / / _ {  . .] 9 w w p >.>.u r                         ",
"                    . r t.i.d 7 7 ` } .. . .{ ] ( a Y H $ . . . . $ H Y a ( ] {  .{ _ / 7 8 6 >.|.XX{.-.r .                     ",
"                    g =.XX5Xi.2.>.>.| [ { {  .{ ) a Y H $ . . . . $ H Y a ) {  . .] q s M >.>.J.>XeXwX X=.g                     ",
"                m ,.|.>XrXrXqXqX>X|.>.q p _  .{ ) a Y H $ . . . . $ H L a ) {  .] p 8 #.t. XXX>XrXtXtXrX>X|.&.m                 ",
"                m 4.9XeXtXrXrXyX3XoX<.t 0 p _ _ ( a F G @ . . . . $ G K a ( _ _ p 7 7 M L.XX>X>XwXtXtXrXeX0X4.m                 ",
"            h l m a.qXtXwX0X5XK.K.J.-.>.t 7 7 p q s u 3 X . . . . X 3 u s q 0 0 7 y z M ,.4.J.oX0X0X9XwXtXqXa.m l 6             ",
"            6 6 y 1.6XqX5XK.K.U.I.i.t.<.W V z l i w 8 * o X + X + o * y 7 0 l Z Z V N W 2.c.v.U.K.oXK. X6X5X5.m 6 :             ",
"        6 h 6 > O r t.J.4.v.aXfXaXN.c.h.k.k.d.Z l 6 , > > : : ; : : , , 7 j V d.j.j.d.h.B.aXgXgXI.S.L L <.1.! G * O ; h         ",
"        6 6 > > z m &.&.K g.pXgXaXM.2.C j.k.h.2.#.c a n n i i i i n c a n #.2.h.k.k.j.l.M.iXsXpXx.J H A u F H G % + : h         ",
"        h : O l l.m.U G I R c.c.g.W 4 : n X.e.R.q.q.q.w.} [ [ [ [ } q.q.q.q.y.e.X.@.k.j.V v Z C I Q V.Z.C.Q H 3 X + : 6 7 6     ",
"        l 6 X , m.M.W S I ^ E R R P < - e ] e.^././.).^.T.0.0.0.0.T.~./.)./.^.T.{ X.n.b., . . X D ! A.A.A.C.J 5 @ O 6 l h h     ",
"    6 j b j + O m U P I P T x.P.I.x.P y 0 ] T./.%X$X$X%X+X`.OXOX`.OX%X$X$X+X/.R...r.iXB.h . . X x I T ! ! Z.Z.^ 5 y v b l 6     ",
"    j v o.b ; % 3 D ! ! I R I.Y.Y.I.5.x 7 / 7.E.+X$X&X<X<X<X<X<X1X,X<X,X*X`.E.8.{ r.B.b., . O 4 P E E E T ~ A.Z.D y B o.v l     ",
"    B o.O.b y 5 G ! A.Z.I 1.I.Y.Y.I.5.x ; & ( :.W.`.$X<X<X<X<X<X<X<X,X*X_.W. ._ ) ` l , O X 4 E x.I.x.R E I ! ! u y V O.o.n     ",
"    o.O.O.n 6 3 F ! Z.Z.I U P.U.I.x.P 4 @ O e _ 8.!._.`.)./.).).).).`.).!.8._ q p y + . . X x R P.I.P.5.P x I F u z B O.O.O.    ",
"6 j o.O.O.b ; @ 3 F ! ! S P 6.P.5.E 4 @ $ < w )  .8.0.8. .{ { { {  .8.9.8. .( a U G o . . O x E x.P.P.R 4 * 4 x c B O.O.O.O.    ",
"j v o.o.o.v - + $ 3 F F 5 u U E x 4 o o 2 r w ` _ { [ ' d M d f K #.' ] { ] q a L H 2 X X - 4 P R 5.6.T * . = z o.O.O.O.O.O.    ",
"B B o.o.v h 6 - o @ 4 u y 4 * $ # # $ 2 3 3 6 j / ( p N ! A.Z.Z.Z.! N p / q 0 t J J 5 = : ; O < P E E x # X ; l o.+.+.o.O.O.    ",
"+.+.+.B l h h > O o < y y 4 - . . X 4 z m N C +.v 0 8 m 5.G.H.H.G.~ m 7 0 p C d.1.R x y y : O # 4 x x 4 - O > j b o.o.+.O.O.    ",
"O.O.o.B j 6 h , > > , y 6 6 > - . O z f.j.l.uXn.o.7 w a &.y.|.}.y.%.a 0 7 C m.N.m.g.2.C l 6 > ; # X O O ; , , h l v o.o.O.O.    ",
"B o.O.B l 7 6 6 h h 6 6 7 h h > + # C j.b.uXaXiXC : w ( { 9._._.9.{ / w : C pXsXuXb.j.s.Z h h > O X X O , h h 6 6 j B o.o.B     ",
"j v o.o.l 6 6 h h h h 6 h h h : X O Z j.b.uXaXuXz + e ) { 8.~.~.8.{ ( e + Z aXfXuXb.j.d.        > > : > , h h 6 6 j o.o.v j     ",
"6 j b b l 6 6 7 h h h 7 6 6 h > + - z s.j.M.iXuXC : w / ]  .T.0. ._ p 0 v l.dXfXuXb.s.Z         7 h h h h h 7 6 6 l b b j 6     ",
"    l j                             O 6 s.b.M.M.b.s.v 7 / ] .. .] q w @.uXdXfXdXuXj.z O                             j l         ",
"    6 6                             . O z C d.j.m.l.W t 8 9 X.X.` v j f.aXdXiXM.j.s.; .                             6 6         ",
"                                        O - ; z 5.x.6.U < ; V d.@.C s.d.b.l.C , , ;                                             ",
"                                        . . . * P R 1.P # O N g.z.n.l.b.j.Z O X . .                                             ",
"                                                * * * $ X ; E v.7X8X8XY.x.U $ .                                                 ",
"                                                . . . . . * R I.8XqXqX8XI.R * .                                                 "
};
